<svg width="52" height="49" viewBox="0 0 52 49" fill="none" xmlns="http://www.w3.org/2000/svg">
<path d="M28.2986 1.26774C27.399 -0.422581 24.6015 -0.422581 23.7019 1.26774L0.302301 45.2058C0.0924548 45.5997 -0.0113448 46.0409 0.000983043 46.4865C0.0133109 46.932 0.141347 47.3669 0.372657 47.7487C0.603966 48.1306 0.930685 48.4464 1.32108 48.6657C1.71147 48.885 2.15227 49.0001 2.60066 49H49.3999C49.8482 49.0009 50.2892 48.8863 50.6797 48.6674C51.0703 48.4485 51.3971 48.1327 51.6283 47.7508C51.8596 47.3689 51.9873 46.934 51.9991 46.4884C52.0109 46.0428 51.9063 45.6018 51.6956 45.2084L28.2986 1.26774ZM28.6002 41.2462H23.4003V36.077H28.6002V41.2462ZM23.4003 30.9078V17.9849H28.6002L28.6028 30.9078H23.4003Z" fill="#CFAE78"/>
</svg>
