<svg width="9" height="15" viewBox="0 0 9 15" fill="none" xmlns="http://www.w3.org/2000/svg">
<path d="M5.534 10.526H3.338V10.112C3.35 9.5 3.488 8.96 3.752 8.492C4.016 8.024 4.466 7.532 5.102 7.016C5.618 6.596 5.954 6.266 6.11 6.026C6.266 5.774 6.344 5.444 6.344 5.036C6.344 4.46 6.164 3.98 5.804 3.596C5.456 3.2 5.018 3.002 4.49 3.002C3.926 3.002 3.458 3.224 3.086 3.668C2.726 4.1 2.546 4.658 2.546 5.342V5.576H0.134C0.158 4.232 0.434 3.206 0.962 2.498C1.742 1.442 2.9 0.913999 4.436 0.913999C5.84 0.913999 6.95 1.34 7.766 2.192C8.474 2.936 8.828 3.878 8.828 5.018C8.828 5.75 8.678 6.356 8.378 6.836C8.09 7.304 7.532 7.832 6.704 8.42C6.152 8.804 5.816 9.104 5.696 9.32C5.588 9.524 5.534 9.926 5.534 10.526ZM4.472 11.768C4.808 11.768 5.084 11.882 5.3 12.11C5.528 12.326 5.642 12.596 5.642 12.92C5.642 13.244 5.528 13.52 5.3 13.748C5.072 13.976 4.796 14.09 4.472 14.09C4.16 14.09 3.89 13.976 3.662 13.748C3.434 13.52 3.32 13.244 3.32 12.92C3.32 12.596 3.434 12.326 3.662 12.11C3.89 11.882 4.16 11.768 4.472 11.768Z" fill="#CFAE78"/>
</svg>
