<svg width="20" height="15" viewBox="0 0 20 15" fill="none" xmlns="http://www.w3.org/2000/svg">
<path d="M10 10.303H6.25V9.54841C6.25 9.29352 6.29557 9.04869 6.38672 8.81392C6.45833 8.6261 6.56576 8.445 6.70898 8.2706C6.85221 8.0962 7.01497 7.91844 7.19727 7.73733C7.37956 7.55623 7.55859 7.38853 7.73438 7.23426C7.91016 7.07998 8.07617 6.91564 8.23242 6.74124C8.38867 6.56684 8.51237 6.40921 8.60352 6.26835C8.69466 6.12749 8.74349 5.96985 8.75 5.79545C8.75 5.62105 8.68815 5.47013 8.56445 5.34268C8.44075 5.21524 8.29427 5.15152 8.125 5.15152C7.97526 5.15152 7.84505 5.19847 7.73438 5.29238C7.6237 5.38628 7.54883 5.51038 7.50977 5.66465L6.28906 5.40305C6.32812 5.1817 6.40299 4.97711 6.51367 4.7893C6.62435 4.60148 6.76758 4.4405 6.94336 4.30634C7.11914 4.17219 7.30469 4.06487 7.5 3.98438C7.69531 3.90388 7.90365 3.86364 8.125 3.86364C8.38542 3.86364 8.62956 3.91394 8.85742 4.01456C9.08529 4.11517 9.28385 4.25268 9.45312 4.42708C9.6224 4.60148 9.75586 4.80607 9.85352 5.04084C9.95117 5.27561 10 5.52715 10 5.79545C10 6.05705 9.96419 6.29182 9.89258 6.49976C9.82096 6.7077 9.72005 6.90223 9.58984 7.08333C9.45964 7.26444 9.31641 7.43549 9.16016 7.59647C9.00391 7.75746 8.83789 7.91173 8.66211 8.0593C8.48633 8.20687 8.32031 8.36115 8.16406 8.52213C8.00781 8.68312 7.85482 8.84746 7.70508 9.01515H10V10.303ZM20 0V14.1667H0V0H20ZM18.75 1.28788H1.25V12.8788H18.75V1.28788ZM3.87695 5.34268C3.68815 5.45672 3.4668 5.56068 3.21289 5.65459C2.95898 5.7485 2.72135 5.79545 2.5 5.79545V4.50758C2.57161 4.50758 2.67253 4.48745 2.80273 4.44721C2.93294 4.40696 3.06315 4.35665 3.19336 4.29628C3.32357 4.23591 3.44076 4.16548 3.54492 4.08499C3.64909 4.0045 3.7207 3.93071 3.75977 3.86364H5V10.303H3.87695V5.34268ZM12.8906 10.303C12.6172 10.303 12.3535 10.2561 12.0996 10.1622C11.8457 10.0683 11.6016 9.94417 11.3672 9.78989V8.51207C11.4974 8.61269 11.6113 8.69989 11.709 8.77367C11.8066 8.84746 11.9108 8.90783 12.0215 8.95478C12.1322 9.00174 12.2428 9.03527 12.3535 9.0554C12.4642 9.07552 12.6107 9.08558 12.793 9.08558C12.9362 9.08558 13.0729 9.07217 13.2031 9.04534C13.3333 9.01851 13.4473 8.9682 13.5449 8.89441C13.6426 8.82063 13.724 8.72672 13.7891 8.61269C13.8542 8.49866 13.8835 8.3578 13.877 8.1901C13.877 7.98216 13.7988 7.8346 13.6426 7.7474C13.4863 7.6602 13.304 7.59983 13.0957 7.56629C12.8874 7.53275 12.6758 7.52269 12.4609 7.5361C12.2461 7.54952 12.0736 7.55623 11.9434 7.55623V6.58026H12.5098C12.7116 6.58026 12.9004 6.55678 13.0762 6.50982C13.252 6.46287 13.3984 6.37567 13.5156 6.24822C13.6328 6.12078 13.6914 5.92961 13.6914 5.67472C13.6914 5.39299 13.61 5.20518 13.4473 5.11127C13.2845 5.01736 13.0762 4.97041 12.8223 4.97041C12.5618 4.97041 12.3372 5.03078 12.1484 5.15152C11.9596 5.27225 11.7708 5.41647 11.582 5.58416V4.27616C11.8034 4.12188 12.0508 4.01456 12.3242 3.95419C12.5977 3.89382 12.8646 3.86364 13.125 3.86364C13.3594 3.86364 13.5872 3.89717 13.8086 3.96425C14.0299 4.03133 14.2253 4.12859 14.3945 4.25604C14.5638 4.38348 14.7038 4.54782 14.8145 4.74905C14.9251 4.95028 14.9772 5.1817 14.9707 5.4433C14.9707 5.76527 14.9089 6.05035 14.7852 6.29853C14.6615 6.54672 14.4596 6.7513 14.1797 6.91229C14.4661 7.0129 14.7005 7.19066 14.8828 7.44555C15.0651 7.70044 15.1562 7.98552 15.1562 8.30078C15.1562 8.61604 15.0911 8.89777 14.9609 9.14595C14.8307 9.39414 14.6615 9.60208 14.4531 9.76977C14.2448 9.93746 14.0007 10.0683 13.7207 10.1622C13.4408 10.2561 13.1641 10.303 12.8906 10.303Z" fill="#CFAE78"/>
</svg>
