<svg width="18" height="14" viewBox="0 0 18 14" fill="none" xmlns="http://www.w3.org/2000/svg">
<path d="M1.8 14C1.305 14 0.8814 13.8288 0.5292 13.4864C0.177 13.144 0.0006 12.7318 0 12.25V1.75C0 1.26875 0.1764 0.856916 0.5292 0.5145C0.882 0.172083 1.3056 0.000583333 1.8 0H16.2C16.695 0 17.1189 0.1715 17.4717 0.5145C17.8245 0.8575 18.0006 1.26933 18 1.75V12.25C18 12.7312 17.8239 13.1434 17.4717 13.4864C17.1195 13.8294 16.6956 14.0006 16.2 14H1.8ZM4.5675 9.625C4.7175 9.625 4.8414 9.57775 4.9392 9.48325C5.037 9.38875 5.0856 9.26829 5.085 9.12187V4.94375C5.085 4.78333 5.0289 4.64858 4.9167 4.5395C4.8045 4.43042 4.6656 4.37558 4.5 4.375C4.425 4.375 4.3536 4.38608 4.2858 4.40825C4.218 4.43042 4.1544 4.46308 4.095 4.50625L3.0825 5.20625C2.9775 5.27917 2.9139 5.37396 2.8917 5.49062C2.8695 5.60729 2.8956 5.72396 2.97 5.84062C3.0444 5.95729 3.1458 6.02671 3.2742 6.04887C3.4026 6.07104 3.5262 6.04537 3.645 5.97187L4.05 5.6875V9.12187C4.05 9.26771 4.0989 9.38817 4.1967 9.48325C4.2945 9.57833 4.4181 9.62558 4.5675 9.625ZM7.29 9.625H9.9C10.02 9.625 10.125 9.58125 10.215 9.49375C10.305 9.40625 10.35 9.30417 10.35 9.1875C10.35 9.07083 10.305 8.96875 10.215 8.88125C10.125 8.79375 10.02 8.75 9.9 8.75H8.235L8.19 8.70625C8.505 8.41458 8.7639 8.16667 8.9667 7.9625C9.1695 7.75833 9.3306 7.59792 9.45 7.48125C9.72 7.21875 9.9225 6.95625 10.0575 6.69375C10.1925 6.43125 10.26 6.15417 10.26 5.8625C10.26 5.43958 10.095 5.08579 9.765 4.80112C9.435 4.51646 9.015 4.37442 8.505 4.375C8.205 4.375 7.92 4.44442 7.65 4.58325C7.38 4.72208 7.1625 4.91517 6.9975 5.1625C6.9225 5.26458 6.915 5.37396 6.975 5.49062C7.035 5.60729 7.125 5.6875 7.245 5.73125C7.365 5.775 7.485 5.775 7.605 5.73125C7.725 5.6875 7.83 5.62187 7.92 5.53437C7.995 5.46146 8.0814 5.40312 8.1792 5.35937C8.277 5.31562 8.3856 5.29375 8.505 5.29375C8.73 5.29375 8.9139 5.35208 9.0567 5.46875C9.1995 5.58542 9.2706 5.73125 9.27 5.90625C9.27 6.06667 9.24 6.21629 9.18 6.35512C9.12 6.49396 8.985 6.66517 8.775 6.86875L8.4825 7.15312L8.055 7.56875L6.975 8.61875C6.945 8.64792 6.9 8.75 6.84 8.925V9.1875C6.84 9.30417 6.885 9.40625 6.975 9.49375C7.065 9.58125 7.17 9.625 7.29 9.625ZM13.5 9.625C14.04 9.625 14.475 9.47917 14.805 9.1875C15.135 8.89583 15.3 8.51667 15.3 8.05C15.3 7.7875 15.225 7.55417 15.075 7.35C14.925 7.14583 14.715 6.98542 14.445 6.86875V6.825C14.655 6.70833 14.82 6.55871 14.94 6.37612C15.06 6.19354 15.12 5.97858 15.12 5.73125C15.12 5.3375 14.9625 5.01287 14.6475 4.75737C14.3325 4.50187 13.935 4.37442 13.455 4.375C13.155 4.375 12.8775 4.44442 12.6225 4.58325C12.3675 4.72208 12.1575 4.89329 11.9925 5.09687C11.9175 5.19896 11.91 5.30104 11.97 5.40312C12.03 5.50521 12.12 5.58542 12.24 5.64375C12.36 5.6875 12.48 5.69129 12.6 5.65512C12.72 5.61896 12.825 5.55683 12.915 5.46875C12.99 5.39583 13.0725 5.34129 13.1625 5.30512C13.2525 5.26896 13.35 5.25058 13.455 5.25C13.65 5.25 13.8114 5.30483 13.9392 5.4145C14.067 5.52417 14.1306 5.65892 14.13 5.81875C14.13 6.02292 14.055 6.18333 13.905 6.3C13.755 6.41667 13.56 6.475 13.32 6.475C13.2 6.475 13.095 6.51875 13.005 6.60625C12.915 6.69375 12.87 6.79583 12.87 6.9125C12.87 7.02917 12.915 7.13125 13.005 7.21875C13.095 7.30625 13.2 7.35 13.32 7.35C13.62 7.35 13.86 7.40833 14.04 7.525C14.22 7.64167 14.31 7.80208 14.31 8.00625C14.31 8.19583 14.2275 8.36004 14.0625 8.49887C13.8975 8.63771 13.71 8.70683 13.5 8.70625C13.32 8.70625 13.17 8.67708 13.05 8.61875C12.93 8.56042 12.825 8.46562 12.735 8.33437C12.66 8.23229 12.5664 8.16317 12.4542 8.127C12.342 8.09083 12.2256 8.09433 12.105 8.1375C11.97 8.19583 11.8725 8.27983 11.8125 8.3895C11.7525 8.49917 11.7525 8.61204 11.8125 8.72812C11.9775 9.01979 12.2025 9.24233 12.4875 9.39575C12.7725 9.54917 13.11 9.62558 13.5 9.625Z" fill="#CFAE78"/>
</svg>
