<svg width="19" height="19" viewBox="0 0 19 19" fill="none" xmlns="http://www.w3.org/2000/svg">
<path d="M0 18V9.846H3V18H0ZM11.615 18.808L3.999 16.583V9.846H6.379L13.731 12.558V14.154H10.731L8.134 13.229L7.823 13.981L10.692 14.923H18.615V16.5L11.615 18.808ZM12.48 10.073L6.75 7.961H3.518C3.58333 6.881 3.99333 5.98433 4.748 5.271C5.50267 4.55767 6.41333 4.12867 7.48 3.984V1H5.98V0H10.98C11.3667 0 11.746 0.0500001 12.118 0.15C12.49 0.25 12.8393 0.400667 13.166 0.602L12.433 1.335C12.1997 1.227 11.9633 1.14433 11.724 1.087C11.4867 1.029 11.2393 1 10.982 1H8.482V3.985C9.61867 4.12833 10.5693 4.622 11.334 5.466C12.0993 6.31067 12.482 7.30933 12.482 8.462L12.48 10.073ZM16.115 6.616C15.693 6.616 15.3377 6.47133 15.049 6.182C14.7603 5.89267 14.6157 5.53733 14.615 5.116C14.615 4.796 14.728 4.39767 14.954 3.921C15.1793 3.44433 15.5663 2.804 16.115 2C16.6637 2.804 17.051 3.44133 17.277 3.912C17.503 4.38267 17.6157 4.784 17.615 5.116C17.615 5.53733 17.4703 5.89267 17.181 6.182C16.8923 6.47133 16.537 6.616 16.115 6.616Z" fill="#CFAE78"/>
</svg>
