<svg width="19" height="19" viewBox="0 0 19 19" fill="none" xmlns="http://www.w3.org/2000/svg">
<path d="M9.5 0.59375C4.58137 0.59375 0.59375 4.58137 0.59375 9.5C0.59375 14.4186 4.58137 18.4062 9.5 18.4062C14.4186 18.4062 18.4062 14.4186 18.4062 9.5C18.4062 4.58137 14.4186 0.59375 9.5 0.59375ZM11.7013 14.25L9.86427 11.2812H8.90625V10.5227C8.55297 10.317 8.3125 9.93819 8.3125 9.5C8.3125 9.31119 8.36059 9.13514 8.43897 8.97691L8.01562 8.29291L8.90625 7.81227V1.78125H10.0938V8.47727C10.447 8.683 10.6875 9.06181 10.6875 9.5C10.6875 9.70841 10.6293 9.90137 10.5349 10.0715L12.7656 13.677L11.7013 14.25Z" fill="white" fill-opacity="0.5"/>
</svg>
