<svg width="32" height="32" viewBox="0 0 32 32" fill="none" xmlns="http://www.w3.org/2000/svg">
<path fill-rule="evenodd" clip-rule="evenodd" d="M16 32C7.1632 32 0 24.8368 0 16C0 7.1632 7.1632 0 16 0C24.8368 0 32 7.1632 32 16C32 24.8368 24.8368 32 16 32ZM14.7792 6.6176L14.9552 18.7712H17.0432L17.2192 6.6176H14.7792ZM15.9936 24.1648C16.8128 24.1648 17.4368 23.552 17.4368 22.7536C17.4368 21.9536 16.8128 21.3424 15.9936 21.3424C15.8063 21.339 15.6202 21.373 15.4462 21.4424C15.2722 21.5119 15.1138 21.6153 14.9803 21.7468C14.8467 21.8782 14.7408 22.0349 14.6686 22.2078C14.5965 22.3807 14.5595 22.5663 14.56 22.7536C14.56 23.552 15.1936 24.1648 15.9936 24.1648Z" fill="#CFAE78"/>
</svg>
