<svg width="19" height="16" viewBox="0 0 19 16" fill="none" xmlns="http://www.w3.org/2000/svg">
<path d="M19 1.56971V11.8777C18.9985 12.2935 18.8282 12.6919 18.5263 12.986C18.2244 13.28 17.8155 13.4459 17.3885 13.4474H11.318L9.83451 15.7637C9.80414 15.8337 9.75325 15.8935 9.68819 15.9356C9.62313 15.9776 9.5468 16 9.46873 16C9.39066 16 9.31433 15.9776 9.24927 15.9356C9.18422 15.8935 9.13332 15.8337 9.10296 15.7637L7.61949 13.4474H1.61291C1.18574 13.4462 0.776381 13.2806 0.474193 12.9865C0.172005 12.6924 0.00153502 12.2938 0 11.8777V1.56971C0.00153291 1.15386 0.171803 0.755462 0.473677 0.461407C0.775551 0.167353 1.18454 0.0014932 1.61145 0H17.3885C17.8155 0.0014932 18.2244 0.167353 18.5263 0.461407C18.8282 0.755462 18.9985 1.15386 19 1.56971ZM10.5268 10.1464C10.5271 9.94857 10.4671 9.75505 10.3545 9.59038C10.2418 9.42571 10.0815 9.2973 9.89395 9.22138C9.70635 9.14546 9.49985 9.12545 9.30058 9.16388C9.1013 9.20231 8.91821 9.29746 8.77447 9.43728C8.63072 9.57711 8.53278 9.75532 8.49305 9.94938C8.45331 10.1434 8.47356 10.3446 8.55123 10.5275C8.6289 10.7103 8.76051 10.8666 8.92939 10.9766C9.09828 11.0865 9.29686 11.1452 9.5 11.1452C9.77207 11.1452 10.033 11.04 10.2255 10.8528C10.4181 10.6655 10.5264 10.4115 10.5268 10.1464ZM8.69427 7.55387C8.69427 7.76203 8.77916 7.96166 8.93027 8.10885C9.08137 8.25604 9.28631 8.33873 9.5 8.33873C9.71369 8.33873 9.91863 8.25604 10.0697 8.10885C10.2208 7.96166 10.3057 7.76203 10.3057 7.55387V2.97083C10.3057 2.76268 10.2208 2.56304 10.0697 2.41585C9.91863 2.26867 9.71369 2.18598 9.5 2.18598C9.28631 2.18598 9.08137 2.26867 8.93027 2.41585C8.77916 2.56304 8.69427 2.76268 8.69427 2.97083V7.55387Z" fill="#CFAE78"/>
</svg>
