<svg width="20" height="23" viewBox="0 0 20 23" fill="none" xmlns="http://www.w3.org/2000/svg">
<path d="M0.398438 10.3094C0.398438 4.94777 4.69636 0.601562 9.99844 0.601562C15.3005 0.601562 19.5984 4.94777 19.5984 10.3094V15.3129C19.5984 16.9108 18.2352 18.0757 16.7184 18.0757H13.8384V10.3094H17.6784C17.6784 8.24968 16.8693 6.27429 15.429 4.81783C13.9887 3.36137 12.0353 2.54314 9.99844 2.54314C7.96158 2.54314 6.00814 3.36137 4.56786 4.81783C3.12758 6.27429 2.31844 8.24968 2.31844 10.3094H6.15844V18.0757H4.29892C4.40535 18.4926 4.64578 18.8618 4.98239 19.1254C5.319 19.389 5.7327 19.532 6.15844 19.5319H7.65988C7.96324 19.0921 8.46724 18.8038 9.03844 18.8038H10.9584C11.404 18.8038 11.8313 18.9828 12.1464 19.3014C12.4614 19.62 12.6384 20.0521 12.6384 20.5027C12.6384 20.9533 12.4614 21.3854 12.1464 21.704C11.8313 22.0226 11.404 22.2016 10.9584 22.2016H9.03844C8.46724 22.2016 7.96324 21.9132 7.65988 21.4735H6.15844C5.19643 21.4736 4.26942 21.1086 3.56082 20.4506C2.85222 19.7926 2.41365 18.8897 2.33188 17.9204C1.23748 17.5544 0.398438 16.5671 0.398438 15.3138V10.3094Z" fill="#CFAE78"/>
</svg>
