<svg width="18" height="18" viewBox="0 0 18 18" fill="none" xmlns="http://www.w3.org/2000/svg">
<path d="M1.8 16.2H3.6V7.2C3.6 6.96131 3.69482 6.73239 3.8636 6.5636C4.03239 6.39482 4.26131 6.3 4.5 6.3H15.3V4.5C15.3 4.26131 15.2052 4.03239 15.0364 3.8636C14.8676 3.69482 14.6387 3.6 14.4 3.6H11.6541C11.4273 1.5804 9.729 0 7.65 0C5.571 0 3.8727 1.5804 3.6459 3.6H0.9C0.661305 3.6 0.432387 3.69482 0.263604 3.8636C0.0948211 4.03239 0 4.26131 0 4.5V14.4C0 14.8774 0.189642 15.3352 0.527208 15.6728C0.864773 16.0104 1.32261 16.2 1.8 16.2ZM7.65 1.8C8.7363 1.8 9.6462 2.574 9.855 3.6H5.445C5.6538 2.574 6.5637 1.8 7.65 1.8Z" fill="#CFAE78"/>
<path d="M17.0984 8.10156H6.29844C6.05974 8.10156 5.83082 8.19638 5.66204 8.36517C5.49326 8.53395 5.39844 8.76287 5.39844 9.00156V16.2016C5.39844 16.679 5.58808 17.1368 5.92565 17.4744C6.26321 17.8119 6.72105 18.0016 7.19844 18.0016H16.1984C16.6758 18.0016 17.1337 17.8119 17.4712 17.4744C17.8088 17.1368 17.9984 16.679 17.9984 16.2016V9.00156C17.9984 8.76287 17.9036 8.53395 17.7348 8.36517C17.5661 8.19638 17.3371 8.10156 17.0984 8.10156ZM11.6984 14.4016C9.21714 14.4016 7.19844 12.3829 7.19844 9.90156H8.99844C8.99844 11.3902 10.2098 12.6016 11.6984 12.6016C13.187 12.6016 14.3984 11.3902 14.3984 9.90156H16.1984C16.1984 12.3829 14.1797 14.4016 11.6984 14.4016Z" fill="#CFAE78"/>
</svg>
