<svg width="18" height="18" viewBox="0 0 18 18" fill="none" xmlns="http://www.w3.org/2000/svg">
<path fill-rule="evenodd" clip-rule="evenodd" d="M5.73601 0C8.9039 0 11.472 2.56812 11.472 5.73601C11.472 6.31548 11.3861 6.87488 11.2263 7.40219L17.208 13.384C18.264 14.44 18.264 16.1521 17.208 17.208C16.1521 18.264 14.44 18.264 13.384 17.208L7.40219 11.2263C6.87488 11.3861 6.31548 11.472 5.73601 11.472C2.56812 11.472 0 8.9039 0 5.73601C0 5.12468 0.0956301 4.53566 0.272774 3.98317L2.98609 6.692L5.67547 5.79633L5.79557 5.67623L6.692 2.98936L3.97555 0.275284C4.53024 0.0965712 5.12185 0 5.73601 0Z" fill="#CFAE78"/>
</svg>
