<svg width="24" height="23" viewBox="0 0 24 23" fill="none" xmlns="http://www.w3.org/2000/svg">
<path d="M21.8182 18.619V19.7143H2.18184V18.619L4.36365 16.4286V9.85714C4.36365 6.46191 6.5782 3.4719 9.81819 2.5081V2.19048C9.81819 1.60953 10.0481 1.05237 10.4572 0.641576C10.8664 0.230782 11.4214 0 12 0C12.5787 0 13.1336 0.230782 13.5428 0.641576C13.952 1.05237 14.1818 1.60953 14.1818 2.19048V2.5081C17.4218 3.4719 19.6364 6.46191 19.6364 9.85714V16.4286L21.8182 18.619ZM14.1818 20.8095C14.1818 21.3905 13.952 21.9476 13.5428 22.3584C13.1336 22.7692 12.5787 23 12 23C11.4214 23 10.8664 22.7692 10.4572 22.3584C10.0481 21.9476 9.81819 21.3905 9.81819 20.8095M20.4545 1.30333L18.9055 2.85857C19.8282 3.77348 20.5608 4.86323 21.0608 6.06462C21.5609 7.266 21.8183 8.5551 21.8182 9.85714H24C24 6.6481 22.7345 3.55952 20.4545 1.30333ZM2.07231e-05 9.85714H2.18184C2.18184 7.22857 3.22911 4.70952 5.09456 2.85857L3.54547 1.30333C2.41953 2.4222 1.52628 3.75455 0.91763 5.22298C0.308982 6.69142 -0.00292869 8.26664 2.07231e-05 9.85714Z" fill="#CFAE78"/>
</svg>
