<svg width="18" height="18" viewBox="0 0 18 18" fill="none" xmlns="http://www.w3.org/2000/svg">
<path d="M10.2681 0.254276C9.45485 -0.0847588 8.54515 -0.0847588 7.7319 0.254276L5.7609 1.07604L14.3937 4.52783L17.4303 3.32202C17.3054 3.21642 17.1659 3.13064 17.0163 3.06753L10.2681 0.254276ZM18 4.58336L9.675 7.89079V17.9991C9.8766 17.9571 10.0743 17.8957 10.2681 17.8149L17.0163 15.0017C17.307 14.8806 17.5559 14.6731 17.7311 14.4057C17.9064 14.1382 18 13.8231 18 13.5006V4.58336ZM8.325 17.9991V7.89079L0 4.58336V13.5016C0.000177317 13.8239 0.0938828 14.1388 0.269124 14.406C0.444366 14.6733 0.693172 14.8807 0.9837 15.0017L7.7319 17.8149C7.9257 17.8951 8.1234 17.9559 8.325 17.9991ZM0.5697 3.32202L9 6.67109L12.5253 5.27002L3.9366 1.83673L0.9837 3.06753C0.8301 3.13169 0.6921 3.21652 0.5697 3.32202Z" fill="#CFAE78"/>
</svg>
