<svg width="19" height="20" viewBox="0 0 19 20" fill="none" xmlns="http://www.w3.org/2000/svg">
<path d="M4.1875 1V19M1 1V4.17647C1 4.59361 1.08245 5.00667 1.24263 5.39205C1.40282 5.77744 1.63761 6.12761 1.9336 6.42258C2.22958 6.71754 2.58097 6.95151 2.9677 7.11115C3.35442 7.27078 3.76891 7.35294 4.1875 7.35294C4.60609 7.35294 5.02058 7.27078 5.4073 7.11115C5.79403 6.95151 6.14542 6.71754 6.4414 6.42258C6.73739 6.12761 6.97218 5.77744 7.13237 5.39205C7.29255 5.00667 7.375 4.59361 7.375 4.17647V1M14.8125 9.47059C13.9671 9.47059 13.1564 9.02437 12.5586 8.2301C11.9608 7.43583 11.625 6.35856 11.625 5.23529C11.625 4.11202 11.9608 3.03476 12.5586 2.24049C13.1564 1.44622 13.9671 1 14.8125 1C15.6579 1 16.4686 1.44622 17.0664 2.24049C17.6642 3.03476 18 4.11202 18 5.23529C18 6.35856 17.6642 7.43583 17.0664 8.2301C16.4686 9.02437 15.6579 9.47059 14.8125 9.47059ZM14.8125 9.47059V19" stroke="#CFAE78" stroke-width="2" stroke-linecap="round" stroke-linejoin="round"/>
</svg>
