<svg width="18" height="14" viewBox="0 0 18 14" fill="none" xmlns="http://www.w3.org/2000/svg">
<path d="M3.27 7.616H5.692C5.98867 7.616 6.24234 7.51033 6.453 7.299C6.66367 7.08833 6.769 6.835 6.769 6.539V5.385C6.769 5.089 6.66367 4.83533 6.453 4.624C6.24234 4.41333 5.989 4.308 5.693 4.308H2.797C2.687 4.308 2.59034 4.348 2.507 4.428C2.425 4.50933 2.384 4.604 2.384 4.712V9.25C2.384 9.378 2.42567 9.48367 2.509 9.567C2.59234 9.65033 2.69767 9.692 2.825 9.692C2.95234 9.692 3.058 9.65033 3.142 9.567C3.226 9.48367 3.268 9.378 3.268 9.25L3.27 7.616ZM8.809 4.308C8.681 4.308 8.575 4.34967 8.491 4.433C8.40767 4.51633 8.366 4.622 8.366 4.75V9.25C8.366 9.378 8.40767 9.48367 8.491 9.567C8.57434 9.65033 8.67967 9.692 8.807 9.692C8.93434 9.692 9.04 9.65033 9.124 9.567C9.208 9.48367 9.25 9.378 9.25 9.25V4.75C9.25 4.622 9.20833 4.51633 9.125 4.433C9.04167 4.34967 8.93634 4.308 8.809 4.308ZM12.058 5.769L14.644 9.5C14.6813 9.558 14.729 9.60467 14.787 9.64C14.845 9.67467 14.909 9.692 14.979 9.692H15.188C15.304 9.692 15.404 9.65067 15.488 9.568C15.572 9.48533 15.6143 9.38467 15.615 9.266V4.72C15.615 4.59867 15.5767 4.49967 15.5 4.423C15.4233 4.34633 15.3247 4.30767 15.204 4.307C15.0833 4.30633 14.984 4.345 14.906 4.423C14.828 4.501 14.789 4.6 14.789 4.72V8.23L12.27 4.5C12.2293 4.442 12.1753 4.39533 12.108 4.36C12.0407 4.32533 11.9667 4.308 11.886 4.308H11.673C11.543 4.308 11.4363 4.35 11.353 4.434C11.271 4.51867 11.23 4.62733 11.23 4.76V9.279C11.23 9.40033 11.2683 9.49967 11.345 9.577C11.4217 9.65433 11.5203 9.69267 11.641 9.692C11.7617 9.69133 11.8613 9.653 11.94 9.577C12.0187 9.501 12.0577 9.40167 12.057 9.279L12.058 5.769ZM3.269 6.731V5.192H5.577C5.65367 5.192 5.72434 5.22433 5.789 5.289C5.85234 5.353 5.884 5.42333 5.884 5.5V6.423C5.884 6.50033 5.852 6.571 5.788 6.635C5.724 6.699 5.65367 6.731 5.577 6.731H3.269ZM1.615 14C1.155 14 0.770669 13.846 0.462002 13.538C0.153335 13.23 -0.000664511 12.8453 2.15517e-06 12.384V1.616C2.15517e-06 1.15533 0.154336 0.771 0.463002 0.463C0.771669 0.155 1.15567 0.000666667 1.615 0H16.385C16.845 0 17.229 0.154333 17.537 0.463C17.845 0.771667 17.9993 1.156 18 1.616V12.385C18 12.845 17.8457 13.2293 17.537 13.538C17.2283 13.8467 16.8443 14.0007 16.385 14H1.615Z" fill="#CFAE78"/>
</svg>
