<svg width="24" height="23" viewBox="0 0 24 23" fill="none" xmlns="http://www.w3.org/2000/svg">
<path d="M10.7402 0.724934C10.8685 0.504358 11.0524 0.321342 11.2734 0.194141C11.4945 0.0669393 11.7449 0 11.9999 0C12.2548 0 12.5053 0.0669393 12.7263 0.194141C12.9474 0.321342 13.1313 0.504358 13.2596 0.724934L16.5197 6.32924L22.851 7.70287C23.1001 7.75706 23.3306 7.87568 23.5196 8.0469C23.7086 8.21812 23.8495 8.43595 23.9282 8.67869C24.0069 8.92142 24.0207 9.18058 23.9682 9.43032C23.9157 9.68007 23.7988 9.91167 23.629 10.102L19.3133 14.9389L19.9665 21.3924C19.9923 21.6465 19.951 21.903 19.8469 22.1361C19.7427 22.3693 19.5793 22.571 19.3729 22.7212C19.1666 22.8713 18.9245 22.9646 18.6709 22.9917C18.4173 23.0189 18.161 22.9789 17.9276 22.8759L11.9999 20.2594L6.07217 22.8759C5.83879 22.9789 5.5825 23.0189 5.32888 22.9917C5.07526 22.9646 4.83319 22.8713 4.62683 22.7212C4.42048 22.571 4.25707 22.3693 4.15292 22.1361C4.04876 21.903 4.00751 21.6465 4.03328 21.3924L4.68647 14.9389L0.370738 10.1032C0.200707 9.91285 0.0835149 9.68116 0.030861 9.43126C-0.0217929 9.18136 -0.00806623 8.922 0.0706706 8.67908C0.149407 8.43615 0.2904 8.21816 0.479572 8.04686C0.668743 7.87556 0.899477 7.75695 1.14874 7.70287L7.48003 6.32924L10.7402 0.724934Z" fill="#CFAE78"/>
</svg>
