<svg width="40" height="35" viewBox="0 0 40 35" fill="none" xmlns="http://www.w3.org/2000/svg">
<path d="M20.978 8.49401C20.7528 8.42685 20.6245 8.19012 20.6917 7.96493C21.4741 5.33629 23.9108 3.40625 26.8102 3.40625C27.0452 3.40625 27.2358 3.59679 27.2358 3.8317C27.2358 4.0666 27.0452 4.25715 26.8102 4.25715C24.3802 4.25715 22.1996 5.88145 21.5072 8.20739C21.4407 8.43227 21.2041 8.56147 20.978 8.49401Z" fill="#CFAE78"/>
<path d="M32.7661 24.6749H30.213C29.978 24.6749 29.7875 24.4844 29.7875 24.2494C29.7875 24.0145 29.978 23.824 30.213 23.824H32.7661C36.2856 23.824 39.1491 20.961 39.1491 17.4423C39.1491 13.9235 36.2856 11.0605 32.7661 11.0605H32.7047C32.5813 11.0605 32.464 11.0071 32.3832 10.9138C32.3023 10.8205 32.2658 10.6968 32.2835 10.5746C32.3215 10.3096 32.3406 10.0434 32.3406 9.7842C32.3406 6.73465 29.8588 4.25333 26.8087 4.25333C25.6221 4.25333 24.4904 4.62408 23.536 5.32576C23.3263 5.47983 23.0284 5.41146 22.9071 5.1808C20.2041 0.0347107 13.1441 -0.656356 9.48388 3.82029C7.94197 5.70624 7.33613 8.15955 7.82159 10.5506C7.87509 10.8147 7.67296 11.0609 7.40457 11.0609H7.23406C3.71464 11.0609 0.851102 13.9239 0.851102 17.4426C0.851102 20.9613 3.71464 23.8243 7.23406 23.8243H9.7872C10.0222 23.8243 10.2127 24.0149 10.2127 24.2498C10.2127 24.4847 10.0222 24.6752 9.7872 24.6752H7.23406C3.24528 24.6752 0 21.4306 0 17.4426C0 13.5664 3.06562 10.3926 6.90001 10.2175C6.53983 7.73682 7.22858 5.23457 8.82491 3.2818C12.7437 -1.51148 20.2539 -0.974218 23.4286 4.37064C24.4414 3.7358 25.6003 3.40277 26.8085 3.40277C30.504 3.40277 33.4322 6.54747 33.176 10.2215C36.9751 10.4345 40 13.5916 40 17.4423C40 21.4306 36.7549 24.6749 32.7661 24.6749Z" fill="#CFAE78"/>
<path d="M19.9431 34.6711C14.0771 34.6711 9.30469 29.8997 9.30469 24.0348C9.30469 18.1699 14.077 13.3984 19.9431 13.3984C25.8091 13.3984 30.5815 18.1699 30.5815 24.0348C30.5815 29.8996 25.8091 34.6711 19.9431 34.6711ZM19.9431 14.2495C14.5465 14.2495 10.1559 18.6393 10.1559 24.0348C10.1559 29.4304 14.5465 33.82 19.9431 33.82C25.3396 33.82 29.7302 29.4303 29.7302 24.0348C29.7302 18.6392 25.3396 14.2495 19.9431 14.2495Z" fill="#CFAE78"/>
<path d="M20.1436 28.6277C19.9716 28.6277 19.832 28.4882 19.832 28.3162V20.2177C19.832 20.0458 19.9716 19.9062 20.1436 19.9062C20.3156 19.9062 20.4551 20.0457 20.4551 20.2177V28.3162C20.4551 28.4884 20.3156 28.6277 20.1436 28.6277Z" fill="#CFAE78"/>
<path d="M22.636 23.021C22.5563 23.021 22.4764 22.9906 22.4157 22.9298L20.1437 20.6583L17.8717 22.9298C17.7502 23.0515 17.5529 23.0515 17.4311 22.9298C17.3094 22.8081 17.3094 22.611 17.4311 22.4893L19.9234 19.9975C20.0449 19.8758 20.2423 19.8758 20.364 19.9975L22.8563 22.4893C22.978 22.611 22.978 22.8081 22.8563 22.9298C22.7955 22.9908 22.7157 23.021 22.636 23.021Z" fill="#CFAE78"/>
</svg>
