<svg width="125" height="120" viewBox="0 0 125 120" fill="none" xmlns="http://www.w3.org/2000/svg">
<g filter="url(#filter0_d_21_1353)">
<circle cx="62.2864" cy="57.2864" r="42.2864" fill="#00395D"/>
</g>
<path d="M58.2034 41.5427C57.0824 42.9519 58.5309 44.9278 60.2014 44.3358C61.2704 43.9564 61.7034 42.6653 61.1067 41.7096C61.9711 40.1745 64.2619 40.6421 64.4902 42.3787L64.4871 56.8796C64.4713 57.0607 64.5879 57.2213 64.7516 57.2858C64.8917 57.3409 66.4331 57.3472 66.6441 57.3142C66.8519 57.2827 66.9999 57.1331 67.0031 56.919V43.051C66.9433 42.0827 66.526 41.0263 65.8569 40.3209C64.2871 38.663 61.6105 38.4898 59.8786 39.9919C59.5527 40.2737 59.315 40.6972 59.0599 40.9318C58.8222 41.1507 58.5167 41.1507 58.205 41.5427H58.2034ZM60.0739 42.163C60.7068 42.7755 59.7212 43.8099 59.0819 43.092C58.534 42.4779 59.4504 41.56 60.0739 42.163Z" fill="#CFAE78"/>
<path d="M63.8404 57.0685L63.8372 41.7316C63.4893 41.2278 63.0405 41.0231 62.4249 41.1128C62.1069 41.1585 61.5527 41.497 61.5117 41.834V56.9205C61.5385 57.1472 61.655 57.27 61.8786 57.3078C62.1746 57.3566 63.1555 57.3551 63.4625 57.3189C63.6042 57.3015 63.7963 57.2102 63.8404 57.0685Z" fill="#CFAE78"/>
<path d="M68.4898 57.3173H77.9587C77.9712 57.3173 78.0374 57.248 78.0216 57.2134C77.5131 56.7253 77.4769 56.0262 77.8437 55.4421C77.9618 55.2532 78.1948 55.1807 77.8327 55.1807H71.338C71.2845 55.1807 71.2247 55.1949 71.2341 55.1193C71.2687 54.8643 71.4829 54.4659 71.5569 54.1841C72.3236 51.2713 71.2813 48.1649 68.9181 46.3259L68.1749 45.8363C68.1119 45.9055 68.4473 46.2488 68.5024 46.3244C70.2721 48.7506 70.5051 51.9106 68.9621 54.5226C68.8362 54.7367 68.1529 55.6027 68.134 55.7066C68.1025 55.8735 68.1025 56.8796 68.134 57.0449C68.1576 57.1709 68.378 57.3 68.4898 57.3189V57.3173Z" fill="#CFAE78"/>
<path d="M60.885 56.9614V44.3704C60.652 44.4177 60.4678 44.5767 60.2238 44.6523C59.8396 44.7703 59.5089 44.7829 59.1169 44.6932C58.8429 44.6302 58.6398 44.4665 58.3706 44.4129V57.004C58.3706 57.1787 58.6209 57.2937 58.7721 57.3141C59.1389 57.3629 60.0663 57.3551 60.4473 57.3204C60.6363 57.3031 60.885 57.1709 60.885 56.9614Z" fill="#CFAE78"/>
<path d="M50.0825 55.779C50.2509 56.3033 50.1281 56.8308 49.7392 57.2134C49.7235 57.2496 49.7896 57.3173 49.8022 57.3173H56.8842C56.9928 57.3173 57.2038 57.1599 57.2321 57.0355C57.2668 56.8764 57.2699 55.8719 57.2384 55.705C57.2132 55.5681 56.7503 55.0516 56.637 54.8816C54.9177 52.3278 54.9869 48.9726 56.7629 46.4676C56.8291 46.3732 57.2589 45.9103 57.1991 45.8363C54.3556 47.5084 52.97 50.9313 53.8171 54.1416C53.91 54.4943 54.0596 54.8249 54.1399 55.1807H49.7408C49.8337 55.3949 50.01 55.546 50.0856 55.779H50.0825Z" fill="#CFAE78"/>
<path d="M38.4108 66.8223C38.7147 66.7798 40.4309 66.9042 40.5663 66.8098C40.6497 66.7515 40.5867 66.3988 40.6056 66.2839H49.5297V63.4341C49.24 63.5223 48.9503 63.7065 48.6921 63.8734V65.4872C48.6228 65.4872 48.3142 65.5124 48.3142 65.4242V63.4341C48.0245 63.5223 47.7348 63.7065 47.4766 63.8734V65.4872H47.0987V63.4341C46.8201 63.5349 46.4973 63.6876 46.2611 63.8734V65.4872H45.381V63.4971C45.381 63.4813 45.3243 63.4309 45.2802 63.4372C45.1795 63.453 44.693 63.8198 44.5418 63.8734V65.4872H43.1374C43.1374 65.4872 43.0744 65.4289 43.0744 65.4242V63.538C43.0744 63.5301 43.1578 63.4262 43.0193 63.4388C42.865 63.453 42.4336 63.8151 42.2368 63.8513V65.4856H40.6655C40.5836 65.4856 40.5962 64.818 40.5553 64.6732C40.3537 63.9379 39.2815 63.8151 38.7289 64.1788C38.5399 64.3032 38.3384 64.659 38.3384 64.8779V65.4856H37.5417V61.4219C37.2599 61.5164 36.956 61.6912 36.7041 61.8612V66.2193C36.7041 66.2193 36.7624 66.2823 36.7671 66.2823H38.3384C38.3604 66.4004 38.277 66.7783 38.4077 66.8208L38.4108 66.8223ZM39.1792 65.0054C39.1792 64.9409 39.3429 64.7944 39.4201 64.7818C39.9522 64.6874 39.6987 65.7517 39.7664 66.032H39.1792V65.0054Z" fill="#CFAE78"/>
<path d="M65.8623 63.8246C65.7725 63.9757 65.5789 64.7756 65.7662 64.7756H66.4779C66.6228 64.7756 66.3677 64.1804 66.8967 64.2292C67.0542 64.2434 67.21 64.3945 67.21 64.5441V65.4242C67.21 65.4242 67.1518 65.4872 67.1471 65.4872H65.6592V66.2209C65.6592 66.2209 65.7174 66.2839 65.7222 66.2839H76.6159C76.6159 66.2839 76.6789 66.2256 76.6789 66.2209V61.4235C76.3955 61.5164 76.09 61.6864 75.8413 61.8628V65.4872H75.1705V61.4235C75.032 61.4581 74.3691 61.7762 74.3408 61.8707L74.3125 65.4872H73.6417C73.6417 65.4872 73.5788 65.429 73.5788 65.4242V63.4341H72.4262C72.3885 63.4341 72.0909 63.5191 72.0295 63.5412C71.4296 63.749 71.206 64.2623 71.2785 64.8747C71.3084 65.1282 71.4469 65.2621 71.5257 65.4872H70.4991C70.4219 65.3927 70.4015 65.1802 70.392 65.0495C70.3542 64.5284 70.4251 63.9946 70.4156 63.475C70.3716 63.4152 70.3621 63.4388 70.3117 63.4561C70.1291 63.5128 69.7748 63.7695 69.5985 63.875V65.4258C69.5985 65.4258 69.5402 65.4888 69.5355 65.4888H68.0476V64.4622C68.0476 64.3835 67.9327 63.9899 67.8886 63.9096C67.5548 63.2987 66.2039 63.2467 65.8607 63.8261L65.8623 63.8246ZM72.7427 64.2308V65.4463C72.0846 65.2022 71.7193 64.2024 72.7427 64.2308Z" fill="#CFAE78"/>
<path d="M63.0011 63.6451C62.4894 63.9332 62.3619 64.6401 62.5823 65.1518C62.639 65.2841 62.7335 65.3597 62.7697 65.4872H61.6376V63.4971C61.6376 63.4971 61.5794 63.4341 61.5746 63.4341H60.4426C60.2552 63.4341 59.8191 63.6451 59.6821 63.7836C59.5231 63.9442 59.3735 64.3237 59.3735 64.5441V66.2209C59.3735 66.2209 59.4318 66.2839 59.4365 66.2839H64.7787V63.4341H63.5852C63.527 63.4341 63.0751 63.601 62.9995 63.6435L63.0011 63.6451ZM60.8 65.4258C60.7717 65.5203 60.2773 65.514 60.2316 65.4494C60.1891 65.388 60.2033 64.6417 60.2458 64.5362C60.3229 64.3441 60.8 64.1269 60.8 64.2953C60.8 64.5189 60.8457 65.2809 60.8 65.4274V65.4258ZM63.9426 65.4463C63.3066 65.1786 62.9208 64.2198 63.9426 64.2308V65.4463Z" fill="#CFAE78"/>
<path d="M90.1732 63.8545V65.4888H88.7073C88.6633 64.9676 88.6491 64.4402 88.6633 63.9159C88.6664 63.8293 88.7656 63.4357 88.6444 63.4357H87.4714C87.3281 63.4357 86.8998 63.6435 86.7802 63.749C86.6448 63.8686 86.4448 64.204 86.4448 64.3772V66.2839H87.8272C87.8398 66.4933 87.6698 66.7011 87.5344 66.8507C87.421 66.9751 87.2336 67.0538 87.1974 67.2065H88.1815C88.3326 67.2065 88.7436 66.4775 88.6633 66.2855H91.0092V63.4357L90.1716 63.8545H90.1732ZM87.8272 65.4872H87.2824V64.5441C87.2824 64.4654 87.6918 64.1757 87.8272 64.2717V65.4872Z" fill="#CFAE78"/>
<path d="M63.209 38.6724C63.431 38.6929 63.6341 38.8031 63.8593 38.7984C63.7648 37.4475 63.527 36.125 62.9728 34.8858C62.6815 34.2356 62.1163 33.1697 61.655 32.6422C61.6125 32.5934 61.5904 32.5399 61.5117 32.5556V38.7984C62.0549 38.6866 62.6516 38.6221 63.2074 38.674L63.209 38.6724Z" fill="#CFAE78"/>
<path d="M53.0491 66.2209V61.4235C52.7641 61.4959 52.4539 61.6896 52.2115 61.8628V65.4038C51.9753 65.3912 51.7281 65.3124 51.6336 65.081C51.6163 65.0385 51.5407 64.7787 51.5407 64.7551V61.4235C51.3849 61.4755 50.7944 61.7353 50.7519 61.8707L50.7441 65.0054C50.6937 65.1156 50.9912 65.4541 50.9535 65.4872H50.4087V66.2209C50.4087 66.2209 50.4669 66.2839 50.4717 66.2839H52.9861C52.9861 66.2839 53.0491 66.2256 53.0491 66.2209Z" fill="#CFAE78"/>
<path d="M78.3975 66.6413C78.4258 66.6728 78.695 66.8287 78.7124 66.8287H82.0439V65.2148C82.0439 65.0117 81.7023 64.7756 81.5196 64.7756H80.8709C80.8725 64.615 80.8095 64.0214 81.0599 64.0214H81.94C81.94 64.0214 82.003 63.9631 82.003 63.9584V63.2877C82.003 63.2877 81.9447 63.2247 81.94 63.2247H80.6411C80.4348 63.2247 80.1939 63.431 80.1152 63.6215C79.9987 63.9049 79.9908 65.1298 80.0302 65.4683C80.0349 65.5108 80.0491 65.6132 80.0947 65.6132H81.1008C81.2709 65.6132 81.1906 65.9202 81.2063 66.032H79.2996C79.2776 66.032 79.1107 65.9029 79.1107 65.8856V64.1883C79.0635 64.182 79.0257 64.1914 78.9832 64.2072C78.9155 64.2308 78.4227 64.5016 78.3597 64.5488C78.3124 64.5835 78.2762 64.6055 78.2731 64.6717C78.3345 65.092 78.1361 66.3532 78.3959 66.6413H78.3975Z" fill="#CFAE78"/>
<path d="M57.7834 63.4341H56.5474C56.5112 63.4341 56.1381 63.5648 56.0798 63.5947C55.8531 63.7049 55.65 63.9411 55.5839 64.1883C55.5713 64.2371 55.5225 64.5126 55.5225 64.5457V66.2225C55.5225 66.2225 55.5807 66.2855 55.5854 66.2855H56.9474C56.8797 66.6381 56.5962 66.8633 56.3475 67.09C56.3065 67.1278 56.2577 67.1262 56.2766 67.2081H57.2607C57.3347 67.2081 57.5992 66.8601 57.6338 66.7846C57.6716 66.7011 57.785 66.3752 57.785 66.3075V63.4372L57.7834 63.4341ZM56.9458 65.4258C56.9458 65.5108 56.4278 65.5218 56.3774 65.4494C56.3459 65.4038 56.3475 64.8149 56.3585 64.7141C56.3963 64.3835 56.6214 64.2465 56.9458 64.2749V65.4274V65.4258Z" fill="#CFAE78"/>
<path d="M83.8473 71.2498C83.7623 71.2797 83.5497 71.4293 83.5308 71.4293C83.471 71.4293 83.2663 71.1191 82.8365 71.2041C82.742 71.223 82.5357 71.3505 82.4806 71.3505C82.4476 71.3505 82.446 71.2372 82.4003 71.2309C82.3452 71.2246 81.876 71.4828 81.791 71.541V73.4052H82.3988C82.4444 73.4052 82.4586 73.3029 82.4633 73.2604C82.5074 72.8793 82.3767 72.1094 82.4696 71.7993C82.498 71.7032 82.7688 71.5835 82.8522 71.6072C82.901 71.6213 83.0049 71.8449 83.0049 71.8748V73.4036H83.6331V71.8323C83.6331 71.7379 83.9071 71.5993 83.9921 71.604C84.0598 71.6072 84.1779 71.7457 84.1779 71.7898V73.4036H84.8061V71.6654C84.8061 71.6292 84.6188 71.3568 84.57 71.3159C84.3558 71.138 84.0929 71.1632 83.8441 71.2482L83.8473 71.2498Z" fill="#CFAE78"/>
<path d="M36.0791 70.831V72.2354C35.6193 71.7111 35.2509 71.0971 34.8038 70.557C34.7361 70.4893 34.3613 70.4972 34.3613 70.5806V73.4084L34.9108 73.3848C34.9864 73.2777 34.9124 72.8841 34.914 72.7219C34.9155 72.3519 34.9344 72.0512 34.9061 71.6686C34.9014 71.6135 34.8841 71.5379 34.9691 71.5647C35.1848 71.7993 36.194 73.3942 36.3609 73.4414C36.4444 73.4651 36.5388 73.4462 36.6254 73.4493V70.5586C36.5388 70.5665 36.0806 70.7979 36.0806 70.831H36.0791Z" fill="#CFAE78"/>
<path d="M56.6104 71.7725H55.6468V70.557C55.4201 70.5712 55.1745 70.716 54.9761 70.8294V73.4068H55.5838C55.5838 73.4068 55.6468 73.3485 55.6468 73.3438V72.0653H56.6104V73.4068H57.2811V70.557C57.0544 70.5712 56.8088 70.716 56.6104 70.8294V71.7725Z" fill="#CFAE78"/>
<path d="M53.8867 66.2839H54.6614C54.6614 66.2839 54.7243 66.2256 54.7243 66.2209V61.4235C54.4394 61.4959 54.1292 61.6896 53.8867 61.8628V66.2839Z" fill="#CFAE78"/>
<path d="M85.6062 61.4235C85.3149 61.507 85.0378 61.7148 84.7686 61.8628V66.2209C84.7686 66.2209 84.8268 66.2839 84.8315 66.2839H85.6062V61.4235Z" fill="#CFAE78"/>
<path d="M41.6295 71.2277C41.5381 71.3206 41.2327 72.4023 41.1697 72.4023C41.0453 72.248 40.7588 71.2246 40.6627 71.19C40.6202 71.1742 40.5572 71.1789 40.5179 71.2057C40.447 71.2529 40.1022 72.4023 40.0377 72.4023C39.9479 72.2637 39.5968 71.2073 39.5354 71.1868C39.4047 71.1459 39.0851 71.2167 38.9277 71.1868C38.9182 71.2466 38.934 71.2986 38.9481 71.3553C39.1198 72.004 39.5622 72.7093 39.7338 73.3785C39.7779 73.506 39.9511 73.528 40.0597 73.4714C40.1621 73.4194 40.4234 72.6085 40.4785 72.4448L40.8942 73.432C40.9808 73.5296 41.1241 73.5013 41.2217 73.4399L42.0278 71.1884C41.9144 71.2025 41.7098 71.1474 41.6295 71.2293V71.2277Z" fill="#CFAE78"/>
<path d="M49.6479 56.8276C50.3579 55.7948 48.9535 54.5998 48.0466 55.4563C46.8925 56.5474 48.7536 58.1297 49.6479 56.8276Z" fill="#CFAE78"/>
<path d="M47.2768 56.804C47.9979 55.7082 46.4108 54.5824 45.6094 55.4909C44.5734 56.6655 46.425 58.0966 47.2768 56.804Z" fill="#CFAE78"/>
<path d="M79.6842 55.4043C79.3252 55.0926 78.7048 55.1052 78.3364 55.3901C77.6987 55.8814 77.8389 56.9457 78.5978 57.2244C79.7833 57.6605 80.5517 56.1569 79.6842 55.4043Z" fill="#CFAE78"/>
<path d="M69.6546 72.9958C69.6042 72.9691 69.3617 72.7912 69.3523 72.755C69.3334 72.681 69.5334 72.3834 69.5538 72.2527C69.6247 71.7945 69.505 71.7646 69.072 71.8134C68.6847 71.8575 69.1602 72.0496 69.1744 72.0937C69.2012 72.1677 69.1413 72.5109 69.0327 72.4857C68.9461 72.4668 68.2297 71.5426 68.1935 71.3978C68.0282 70.7507 68.8327 70.7963 68.7603 71.3978C69.0862 71.4686 68.9445 70.9506 68.9618 70.7349C68.4123 70.472 67.6377 70.7097 67.7117 71.4198C67.7227 71.5237 67.8077 71.6749 67.7904 71.7457C67.7747 71.8055 67.5243 72.048 67.4661 72.1771C67.0882 73.0179 67.9542 73.6351 68.7052 73.2903C68.7792 73.2556 68.9114 73.1281 68.9571 73.1218C69.0091 73.1139 69.1177 73.2241 69.1933 73.2493C69.3397 73.2997 70.0136 73.4084 70.0608 73.2619C70.108 73.1124 69.7711 73.0588 69.6562 72.9974L69.6546 72.9958ZM67.9778 72.8085C67.855 72.6558 67.8266 72.0228 68.0266 72.0669C68.0896 72.1929 68.7304 72.8305 68.7194 72.8825C68.6737 73.0824 68.1211 72.9864 67.9778 72.8085Z" fill="#CFAE78"/>
<path d="M83.9303 66.5563V63.4341L83.3572 63.7206L83.1399 63.8812C83.058 64.6386 83.2297 65.5565 83.1226 66.2933C83.088 66.5295 82.9148 66.7594 82.7573 66.9341C82.6565 67.0459 82.4818 67.1026 82.4629 67.2475H83.4469C83.5587 67.2475 83.9287 66.6712 83.9287 66.5563H83.9303Z" fill="#CFAE78"/>
<path d="M50.0322 70.5161H48.209C48.209 70.5161 48.146 70.5743 48.146 70.579V73.4068C48.272 73.3879 48.7569 73.1958 48.7963 73.1139C48.8828 72.9329 48.7758 72.3771 48.8167 72.1504H49.8433C49.9362 72.1504 49.9362 71.689 49.8433 71.689H48.8167V70.9774H49.9692C50.0653 70.9774 50.0259 70.6011 50.0322 70.5161Z" fill="#CFAE78"/>
<path d="M58.8932 71.1868C57.2951 71.0498 57.2605 73.5973 58.8932 73.4477C59.1042 73.4288 59.3325 73.328 59.4868 73.1816C60.1528 72.5471 59.882 71.2702 58.8932 71.1852V71.1868ZM58.8098 73.1533C58.3091 73.1533 58.1973 71.6103 58.6508 71.4859C58.783 71.4497 58.9735 71.6056 59.0397 71.7095C59.2223 71.9945 59.2695 73.1517 58.8082 73.1517L58.8098 73.1533Z" fill="#CFAE78"/>
<path d="M51.0272 71.1978C49.7597 71.3805 49.8416 73.6272 51.3893 73.4446C52.682 73.2919 52.6237 70.9679 51.0272 71.1978ZM51.309 73.1565C50.7721 73.2131 50.6399 71.615 51.1106 71.4859C51.6948 71.3253 51.8333 73.1013 51.309 73.1565Z" fill="#CFAE78"/>
<path d="M89.0205 71.3128C88.734 71.086 88.3845 71.1868 88.0979 71.3537L88.057 71.2293L87.4492 71.5426V73.4068H88.0774V71.8355C88.0774 71.7867 88.4459 71.5285 88.5702 71.6576C88.7104 71.8024 88.6726 72.8384 88.6663 73.0951C88.6647 73.1722 88.6128 73.2934 88.6253 73.3391C88.6616 73.4682 89.1292 73.3832 89.2504 73.4068V71.6261C89.2504 71.5741 89.0772 71.3568 89.019 71.3128H89.0205Z" fill="#CFAE78"/>
<path d="M73.5171 71.3127C73.2416 71.0955 72.8669 71.1758 72.5945 71.3537L72.5535 71.2293L71.9458 71.5426V73.4068H72.574V71.8355C72.574 71.7867 72.9802 71.5033 73.081 71.6749C73.0904 71.6906 73.1613 71.9472 73.1613 71.9614V73.4068H73.7486V71.6261C73.7486 71.5741 73.5754 71.3568 73.5171 71.3127Z" fill="#CFAE78"/>
<path d="M35.695 66.9263C35.7249 66.879 35.8697 66.5405 35.8697 66.5138V63.8529C35.7485 63.9065 35.0573 64.2418 35.0384 64.3001L35.0211 66.4209C35.0006 66.5311 34.8337 66.7767 34.755 66.8665C34.6322 67.0066 34.4433 67.0774 34.4023 67.2475H35.3864C35.4084 67.2475 35.6651 66.9719 35.6934 66.9263H35.695Z" fill="#CFAE78"/>
<path d="M86.5014 72.9408C86.0196 73.1895 85.6433 72.459 85.7488 72.3157C85.8244 72.2134 86.8651 72.3267 87.0729 72.2763C87.1375 71.5867 86.6777 71.0971 85.9724 71.1978C84.9474 71.3427 84.7821 73.136 85.8984 73.4288C86.5124 73.5894 86.9926 73.1297 87.1564 72.5708C86.6856 72.3929 86.7911 72.7928 86.5014 72.9423V72.9408ZM86.0464 71.497C86.2054 71.5033 86.4384 71.8056 86.3187 71.878C86.2542 71.9174 85.8354 71.9174 85.7913 71.8575C85.7189 71.7599 85.8842 71.4891 86.0464 71.4954V71.497Z" fill="#CFAE78"/>
<path d="M43.8319 71.7095C43.7358 70.9065 42.1409 71.0955 42.1503 71.7111C42.1551 72.0937 42.651 72.1315 42.7297 71.826C42.7644 71.6922 42.6919 71.5127 42.8903 71.4796C43.2178 71.4261 43.2761 71.9047 43.1501 72.0134C43.084 72.0716 42.6274 72.1945 42.4605 72.3094C41.8732 72.714 42.0637 73.5264 42.8462 73.4493C42.9895 73.4351 43.1312 73.3218 43.1816 73.3218C43.2052 73.3218 43.2021 73.4084 43.2241 73.4099C43.3233 73.4147 43.6713 73.1486 43.8256 73.1502C43.7957 72.6983 43.8854 72.1504 43.8319 71.7095ZM43.1958 72.8762C43.169 72.9518 42.9533 73.1013 42.8541 73.0321C42.5849 72.8431 42.9313 72.3425 43.2021 72.3582C43.1785 72.503 43.2383 72.7487 43.1958 72.8746V72.8762Z" fill="#CFAE78"/>
<path d="M63.0729 72.9045C62.78 73.1171 62.4368 72.9297 62.3124 72.6274C62.2904 72.5739 62.1896 72.2747 62.2872 72.2747H63.5657C63.7263 71.0782 62.103 70.7412 61.7141 71.8701C61.574 72.2763 61.5787 72.703 61.8479 73.0494C62.451 73.8272 63.4508 73.4477 63.6066 72.5692C63.1941 72.4149 63.2839 72.7518 63.0729 72.9045ZM62.8525 71.8984H62.2652C62.2683 71.3915 62.8383 71.3836 62.8525 71.8984Z" fill="#CFAE78"/>
<path d="M38.7195 71.667C38.6518 71.0986 37.652 71.075 37.2725 71.3537C36.7608 71.7315 37.2379 72.2212 37.5434 71.9598C37.7024 71.8244 37.5213 71.36 37.9354 71.4875C38.0771 71.5316 38.1495 71.9063 38.0488 72.0055C37.9874 72.0653 37.4961 72.2086 37.3465 72.3062C36.786 72.6715 36.9403 73.528 37.7339 73.4493C37.8756 73.4351 38.0204 73.3218 38.0692 73.3218C38.0944 73.3218 38.0881 73.391 38.0991 73.3973C38.1936 73.4493 38.5746 73.1517 38.7116 73.1501C38.6833 72.6841 38.773 72.122 38.7195 71.6686V71.667ZM37.8913 73.0242C37.4615 73.1092 37.7165 72.322 38.0897 72.3598C38.0661 72.5786 38.1952 72.9644 37.8913 73.0242Z" fill="#CFAE78"/>
<path d="M77.686 72.7896C77.2986 73.295 76.7114 72.7896 76.7649 72.2763H78.0434C78.1205 72.2763 78.0701 71.911 78.0544 71.8465C77.8481 70.9994 76.6153 70.9632 76.2548 71.7866C75.5825 73.3233 77.6891 74.2287 78.1489 72.5707C77.7159 72.4637 77.8544 72.5723 77.686 72.7896ZM77.3506 71.8984H76.7633C76.8169 71.3647 77.3175 71.3726 77.3506 71.8984Z" fill="#CFAE78"/>
<path d="M45.9202 71.6197C46.0131 71.4828 46.1264 71.3647 46.0949 71.1868H44.4811C44.4575 71.1868 44.2087 71.5615 44.2103 71.5851C44.2103 71.5898 44.267 71.6481 44.2717 71.6481H45.2148L44.8133 72.2306C44.6496 72.5125 44.2213 72.8746 44.0891 73.1407C44.0434 73.2336 44.0308 73.3044 44.0418 73.4068H46.032C46.1233 73.4068 46.1233 72.988 46.032 72.988H45.0259C45.0007 72.988 44.9676 72.958 44.922 72.988L44.9613 72.8368C45.2652 72.4259 45.6336 72.0449 45.9202 71.6197Z" fill="#CFAE78"/>
<path d="M81.3204 72.9045C81.3078 72.9124 81.081 73.1517 81.081 72.9659V71.6875C81.5518 71.7237 81.577 71.6969 81.5424 71.2262H81.081V70.6184C81.081 70.535 80.7661 70.5318 80.6795 70.5948C80.6465 70.62 80.4686 70.9176 80.4103 70.9947C80.2985 71.1427 80.1285 71.2277 80.1143 71.4135C80.0812 71.8638 80.3867 71.6229 80.4528 71.6875C80.5016 71.7347 80.4261 72.8463 80.4528 73.051C80.5079 73.5107 81.0385 73.5721 81.3723 73.3407C81.714 73.1045 81.5439 72.777 81.3219 72.9045H81.3204Z" fill="#CFAE78"/>
<path d="M61.3182 72.8652C61.2678 72.8557 60.9671 73.1864 60.9671 72.925V71.6891H61.4284V71.2529L60.9671 71.2293V70.5586C60.5231 70.4972 60.6129 70.6137 60.4208 70.8609C60.3452 70.9585 60.109 71.1805 60.0665 71.2718C60.0382 71.3316 60.0303 71.6749 60.0445 71.6906C60.0587 71.7048 60.2807 71.6812 60.3373 71.6906V73.136C60.3373 73.1502 60.479 73.3265 60.5027 73.347C60.7294 73.5454 61.1183 73.4871 61.3387 73.2997C61.3733 73.2698 61.5135 73.0919 61.5072 73.0588C61.5024 73.0336 61.3403 72.8715 61.3151 72.8668L61.3182 72.8652Z" fill="#CFAE78"/>
<path d="M90.6075 73.0273C90.5619 73.0352 90.4658 72.9392 90.4658 72.925V71.689H90.9272V71.2529L90.4658 71.2293V70.5586C90.3714 70.5759 90.1651 70.5271 90.0974 70.568C90.0722 70.5822 89.8313 70.9821 89.7731 71.0593C89.6613 71.2073 89.5574 71.1962 89.5416 71.4167C89.5101 71.8512 89.7778 71.6339 89.8376 71.6906C89.8943 71.7457 89.74 72.9486 89.9274 73.2556C90.2517 73.7878 91.0956 73.2399 90.9917 73.0321C90.8201 72.6873 90.6752 73.0163 90.606 73.0273H90.6075Z" fill="#CFAE78"/>
<path d="M75.6395 71.1915C75.4678 71.5725 75.3293 71.9803 75.1498 72.3582C75.1278 72.4039 75.1545 72.4637 75.0695 72.4432C75.0034 72.4259 74.6176 71.2167 74.5247 71.1852C74.3972 71.1443 74.0729 71.2151 73.917 71.1852L73.928 71.3206C74.2618 71.9347 74.4397 72.7313 74.7656 73.3328C74.8774 73.5406 75.0585 73.5579 75.1829 73.3501C75.3844 73.0179 75.6584 72.2511 75.8221 71.8528C75.8583 71.763 76.0898 71.2183 76.0535 71.1836L75.641 71.1884L75.6395 71.1915Z" fill="#CFAE78"/>
<path d="M65.4996 71.7426C65.4351 71.5111 65.7799 71.4434 65.9153 71.582C65.9657 71.6339 65.9893 71.763 66.0003 71.7709C66.0397 71.7992 66.3782 71.7001 66.3687 71.593C66.3546 71.4418 66.0507 71.2482 65.9074 71.2151C65.1013 71.0262 64.577 71.8355 65.2036 72.3377C65.3469 72.4527 66.194 72.7801 65.8523 73.0761C65.5343 73.3532 65.3327 72.8022 65.2587 72.7833C65.243 72.7801 64.9612 72.8951 64.9517 72.9092C64.873 73.021 65.2005 73.3454 65.317 73.3973C65.8838 73.6492 66.6143 73.3469 66.4963 72.6353C66.416 72.1519 65.5768 72.0275 65.4996 71.7441V71.7426Z" fill="#CFAE78"/>
<path d="M78.9552 71.741C78.9017 71.5348 79.0166 71.5017 79.2166 71.5174C79.4401 71.5348 79.4071 71.7379 79.4496 71.7694C79.4889 71.7977 79.8275 71.6985 79.818 71.5914C79.8117 71.5253 79.6306 71.3301 79.5692 71.2923C79.0544 70.9742 78.2498 71.3033 78.4073 71.9945C78.508 72.4385 79.2906 72.5471 79.3551 72.851C79.3882 73.0116 79.2953 73.1439 79.13 73.1549C78.8607 73.1722 78.7836 72.7975 78.7096 72.7817C78.645 72.766 78.3648 72.8731 78.4167 73.0321C78.6497 73.739 80.177 73.6099 79.9408 72.5991C79.8369 72.1583 79.0308 72.0307 78.9552 71.741Z" fill="#CFAE78"/>
<path d="M63.9865 70.9538C63.9991 71.6544 64.0038 72.3944 63.9865 73.0951C63.9818 73.2588 63.8511 73.3832 64.0873 73.41C64.1723 73.4194 64.6131 73.4304 64.6131 73.3454V70.2232C64.4541 70.2232 64.1345 70.3823 64.0101 70.4783C63.8716 70.5854 63.9834 70.7948 63.9865 70.9538Z" fill="#CFAE78"/>
<path d="M70.7729 73.4068H71.4437V70.557C71.2106 70.5664 70.9713 70.7097 70.7729 70.8294V73.4068Z" fill="#CFAE78"/>
<path d="M53.542 71.1553C53.4727 71.1726 53.3357 71.3033 53.2791 71.3128C53.257 71.3159 53.2649 71.2372 53.2318 71.2293C53.0822 71.19 52.8004 71.2577 52.6304 71.2293V73.4084C52.739 73.38 53.2035 73.1848 53.2381 73.1155C53.3342 72.925 53.1122 71.5111 53.4806 71.5694C53.5357 71.5788 53.6286 71.7017 53.7089 71.7221C54.2568 71.8654 54.2096 70.9821 53.5404 71.1553H53.542Z" fill="#CFAE78"/>
<path d="M46.3867 73.4068H47.0149V71.1868C46.8055 71.2041 46.5631 71.256 46.3867 71.3757V73.4083V73.4068Z" fill="#CFAE78"/>
<path d="M50.8697 67.1215C50.8555 67.1341 50.8618 67.4585 50.8886 67.501C50.92 67.5498 51.9167 67.5498 52.0017 67.4773C52.0678 67.4222 52.0678 67.1829 52.0033 67.1388C51.8789 67.0522 51.3577 67.2616 51.4774 66.8696C51.575 66.8476 51.5183 66.9436 51.5672 66.9546C51.6742 66.9798 51.8411 66.9373 51.9592 66.9546C52.0001 66.1359 50.6744 66.3469 51.0366 67.1215C50.9956 67.1294 50.8807 67.1105 50.8681 67.1215H50.8697Z" fill="#CFAE78"/>
<path d="M83.4899 62.8515C84.233 62.8515 84.0882 61.7415 83.3324 61.9368C82.8758 62.0549 82.901 62.8515 83.4899 62.8515Z" fill="#CFAE78"/>
<path d="M41.8068 62.7524C42.1658 62.469 41.9029 61.7919 41.3156 61.9462C40.5945 62.1352 41.1928 63.2389 41.8068 62.7524Z" fill="#CFAE78"/>
<path d="M68.834 61.9368C68.3885 62.0501 68.3916 62.8138 68.9931 62.85C69.6969 62.8925 69.626 61.7337 68.834 61.9368Z" fill="#CFAE78"/>
<path d="M42.2508 62.7508C42.6822 63.094 43.3639 62.5367 42.9514 62.0722C42.498 61.5621 41.7485 62.3524 42.2508 62.7508Z" fill="#CFAE78"/>
<path d="M44.857 62.8516C45.564 62.8516 45.4726 61.7872 44.7405 61.9368C44.2257 62.0423 44.2572 62.8531 44.857 62.8516Z" fill="#CFAE78"/>
<path d="M43.7273 62.85C44.4768 62.8909 44.3886 61.7557 43.6092 61.9352C43.1684 62.0376 43.1558 62.8185 43.7273 62.85Z" fill="#CFAE78"/>
<path d="M72.1975 62.702C72.6494 63.1853 73.3737 62.4642 72.8982 62.0234C72.4951 61.6502 71.7661 62.2407 72.1975 62.702Z" fill="#CFAE78"/>
<path d="M59.7832 61.9352C59.2904 62.0486 59.3439 62.9366 60.0147 62.839C60.6649 62.7445 60.4854 61.7731 59.7832 61.9352Z" fill="#CFAE78"/>
<path d="M89.6187 62.8389C90.3965 62.9523 90.3619 61.7227 89.5337 61.9368C89.1196 62.0438 89.0976 62.7634 89.6187 62.8389Z" fill="#CFAE78"/>
<path d="M80.7685 67.0821C80.4615 67.1294 80.293 67.5797 80.4646 67.8221C80.4961 67.8678 80.7024 67.989 80.7685 68.0001C81.5085 68.1197 81.5951 66.9546 80.7685 67.0821Z" fill="#CFAE78"/>
<path d="M79.4594 67.2191C79.0579 67.6521 79.7381 68.3307 80.1868 67.8631C80.6513 67.3766 79.8641 66.783 79.4594 67.2191Z" fill="#CFAE78"/>
<path d="M63.9569 62.0643C63.5303 62.5461 64.3112 63.1523 64.7001 62.702C65.1142 62.2217 64.3616 61.6077 63.9569 62.0643Z" fill="#CFAE78"/>
<path d="M61.1037 62.839C61.7539 62.7445 61.5744 61.7731 60.8722 61.9352C60.392 62.047 60.4345 62.935 61.1037 62.839Z" fill="#CFAE78"/>
<path d="M63.0532 61.9368C62.6249 62.047 62.6312 62.883 63.2516 62.85C63.9443 62.8122 63.8042 61.7447 63.0532 61.9368Z" fill="#CFAE78"/>
<path d="M42.207 61.9163C42.7187 61.7856 42.5534 60.8945 41.9346 61.0141C41.3505 61.1259 41.4512 62.1115 42.207 61.9163Z" fill="#CFAE78"/>
<path d="M46.4394 70.3177C46.1245 70.6593 46.6772 71.127 46.9511 70.8089C47.2487 70.4625 46.726 70.0075 46.4394 70.3177Z" fill="#CFAE78"/>
<path d="M58.5701 37.86C58.9574 37.246 58.4772 36.4839 57.7592 36.539C57.1893 36.5815 56.8319 37.1956 57.0444 37.7214C57.3058 38.3654 58.1985 38.4488 58.5701 37.86ZM57.7907 36.6618C58.4079 36.6209 58.8031 37.3074 58.4473 37.8191C58.1387 38.2615 57.4711 38.2284 57.205 37.7608C56.9374 37.2916 57.2554 36.6965 57.7923 36.6618H57.7907Z" fill="#CFAE78"/>
<path d="M57.7218 37.5058H57.832L58.0682 37.9104H58.2729L58.0005 37.4554C58.1501 37.3908 58.2083 37.2475 58.1705 37.0917C58.1044 36.8209 57.7423 36.898 57.5376 36.8854V37.9104H57.7218V37.5058ZM57.7218 37.0381C57.8651 37.0381 58.0099 37.0287 57.9942 37.2161C57.9895 37.2759 57.958 37.3184 57.9013 37.3389C57.895 37.3404 57.8635 37.3499 57.8604 37.3499H57.7218V37.0366V37.0381Z" fill="#CFAE78"/>
<defs>
<filter id="filter0_d_21_1353" x="0" y="-5" width="124.573" height="124.573" filterUnits="userSpaceOnUse" color-interpolation-filters="sRGB">
<feFlood flood-opacity="0" result="BackgroundImageFix"/>
<feColorMatrix in="SourceAlpha" type="matrix" values="0 0 0 0 0 0 0 0 0 0 0 0 0 0 0 0 0 0 127 0" result="hardAlpha"/>
<feOffset/>
<feGaussianBlur stdDeviation="10"/>
<feComposite in2="hardAlpha" operator="out"/>
<feColorMatrix type="matrix" values="0 0 0 0 0 0 0 0 0 0 0 0 0 0 0 0 0 0 0.1 0"/>
<feBlend mode="normal" in2="BackgroundImageFix" result="effect1_dropShadow_21_1353"/>
<feBlend mode="normal" in="SourceGraphic" in2="effect1_dropShadow_21_1353" result="shape"/>
</filter>
</defs>
</svg>
